<svg id="filled_outline" height="512" viewBox="0 0 512 512" width="512" xmlns="http://www.w3.org/2000/svg" data-name="filled outline"><rect fill="#e0edff" height="464" rx="16" width="464" x="24" y="24"/><circle cx="184" cy="360" fill="#415769" r="24"/><circle cx="336" cy="360" fill="#415769" r="24"/><path d="m152 152h208v48l-56 56h-104z" fill="#ffb401"/><path d="m472 16h-432a24.0275 24.0275 0 0 0 -24 24v432a24.0275 24.0275 0 0 0 24 24h432a24.0275 24.0275 0 0 0 24-24v-432a24.0275 24.0275 0 0 0 -24-24zm8 456a8.00917 8.00917 0 0 1 -8 8h-432a8.00917 8.00917 0 0 1 -8-8v-432a8.00917 8.00917 0 0 1 8-8h432a8.00917 8.00917 0 0 1 8 8"/><circle cx="56" cy="56" r="8"/><circle cx="80" cy="56" r="8"/><circle cx="104" cy="56" r="8"/><path d="m368 360a32.05794 32.05794 0 0 0 -24-30.9873v-1.0127h24a8.00039 8.00039 0 0 0 8-8v-32a8.00039 8.00039 0 0 0 -8-8h-146.82715l-7.20019-16h90.02734a8.00235 8.00235 0 0 0 5.65723-2.34277l56-56a8.00235 8.00235 0 0 0 2.34277-5.65723v-48a8.00039 8.00039 0 0 0 -8-8h-200.02759l-8.67749-19.2832a7.99894 7.99894 0 0 0 -7.29492-4.7168h-40v16h34.82715l69.87793 155.2832a7.99894 7.99894 0 0 0 7.29492 4.7168h144v16h-216v16h32v1.0127a31.97345 31.97345 0 0 0 -19.69482 46.9873h-68.30518v16h336v-16h-60.30518a31.79447 31.79447 0 0 0 4.30518-16zm-16-200v36.68652l-51.31348 51.31348h-93.91381l-39.60035-88zm0 200a16 16 0 1 1 -24-13.835v5.835a8 8 0 0 0 16 0v-5.835a15.99606 15.99606 0 0 1 8 13.835zm-160-30.9873v-1.0127h136v1.0127a31.97345 31.97345 0 0 0 -19.69482 46.9873h-96.61036a31.97345 31.97345 0 0 0 -19.69482-46.9873zm-24 30.9873a15.99656 15.99656 0 0 1 8-13.835v5.835a8 8 0 0 0 16 0v-5.835a15.99215 15.99215 0 1 1 -24 13.835z"/><path d="m176 424h16v16h-16z"/><path d="m224 424h16v16h-16z"/><path d="m272 424h16v16h-16z"/><path d="m320 424h16v16h-16z"/></svg>